<?xml version="1.0" encoding="utf-8"?>
<!-- Generator: Adobe Illustrator 16.0.0, SVG Export Plug-In . SVG Version: 6.00 Build 0)  -->
<!DOCTYPE svg PUBLIC "-//W3C//DTD SVG 1.1//EN" "http://www.w3.org/Graphics/SVG/1.1/DTD/svg11.dtd">
<svg version="1.1" id="Layer_1" xmlns="http://www.w3.org/2000/svg" xmlns:xlink="http://www.w3.org/1999/xlink" x="0px" y="0px"
	 width="162.263px" height="30.53px" viewBox="0 0 162.263 30.53" enable-background="new 0 0 162.263 30.53" xml:space="preserve">
<g>
	<path fill="#F37022" d="M5.83,3.348v10.558H4.638V3.348H5.83z"/>
	<path fill="#F37022" d="M16.086,3.348h1.162v10.558h-0.95L9.48,5.249v8.658H8.318V3.348h1.116l6.651,8.461V3.348z"/>
	<path fill="#F37022" d="M28.499,10.701c-0.271,0.648-0.656,1.209-1.154,1.682c-0.498,0.473-1.091,0.845-1.78,1.116
		c-0.688,0.271-1.445,0.407-2.27,0.407H19.63V3.348h3.665c0.825,0,1.582,0.133,2.27,0.4c0.689,0.266,1.282,0.636,1.78,1.108
		c0.498,0.473,0.882,1.031,1.154,1.674s0.407,1.337,0.407,2.082S28.771,10.053,28.499,10.701z M27.36,6.998
		c-0.206-0.513-0.498-0.958-0.875-1.334c-0.377-0.377-0.837-0.674-1.38-0.89c-0.543-0.216-1.146-0.324-1.81-0.324h-2.474v8.356
		h2.474c0.664,0,1.267-0.105,1.81-0.317c0.543-0.211,1.003-0.505,1.38-0.882c0.377-0.377,0.668-0.817,0.875-1.32
		c0.206-0.502,0.309-1.05,0.309-1.644C27.669,8.059,27.566,7.511,27.36,6.998z"/>
	<path fill="#F37022" d="M32.12,3.348v10.558h-1.192V3.348H32.12z"/>
	<path fill="#F37022" d="M44.441,13.906H43.16l-1.237-2.791h-5.747l-1.252,2.791h-1.222l4.812-10.633h1.116L44.441,13.906z
		 M39.057,4.675l-2.414,5.385h4.812L39.057,4.675z"/>
	<path fill="#F37022" d="M57.473,4.434h-6.44v3.605h5.762v1.086h-5.762v3.695h6.516v1.086h-7.708V3.348h7.632V4.434z"/>
	<path fill="#F37022" d="M67.111,3.348h1.162v10.558h-0.95l-6.817-8.658v8.658h-1.162V3.348h1.116l6.651,8.461V3.348z"/>
	<path fill="#F37022" d="M78.288,4.434h-6.44v3.605h5.762v1.086h-5.762v3.695h6.516v1.086h-7.708V3.348h7.632V4.434z"/>
	<path fill="#F37022" d="M87.428,13.906l-3.062-4.103h-3.017v4.103h-1.191V3.348h4.54c0.584,0,1.109,0.076,1.576,0.227
		c0.469,0.151,0.867,0.365,1.199,0.641c0.332,0.277,0.588,0.609,0.77,0.996s0.271,0.817,0.271,1.29c0,0.443-0.07,0.838-0.211,1.185
		c-0.141,0.347-0.34,0.649-0.596,0.906c-0.256,0.256-0.561,0.47-0.912,0.641c-0.354,0.171-0.734,0.292-1.146,0.362l3.242,4.311
		H87.428z M86.611,5.001c-0.473-0.368-1.139-0.552-1.996-0.552h-3.266v4.299h3.251c0.394,0,0.756-0.051,1.089-0.151
		c0.332-0.101,0.619-0.245,0.861-0.432s0.432-0.416,0.566-0.688c0.137-0.272,0.205-0.581,0.205-0.923
		C87.322,5.887,87.086,5.37,86.611,5.001z"/>
	<path fill="#F37022" d="M97.782,13.613c-0.72,0.316-1.526,0.474-2.421,0.474c-0.835,0-1.582-0.141-2.24-0.422
		c-0.658-0.282-1.222-0.669-1.689-1.162s-0.824-1.071-1.07-1.734c-0.247-0.664-0.37-1.373-0.37-2.127
		c0-0.724,0.129-1.417,0.385-2.081c0.257-0.664,0.616-1.247,1.078-1.75c0.463-0.502,1.019-0.902,1.667-1.199
		c0.648-0.297,1.37-0.445,2.164-0.445c0.442,0,0.848,0.03,1.215,0.091c0.367,0.06,0.709,0.151,1.025,0.271s0.613,0.269,0.89,0.445
		s0.546,0.375,0.808,0.596l-0.77,0.905c-0.201-0.181-0.412-0.344-0.634-0.49c-0.221-0.146-0.46-0.271-0.716-0.377
		c-0.257-0.105-0.538-0.188-0.845-0.249c-0.308-0.061-0.646-0.091-1.019-0.091c-0.583,0-1.121,0.116-1.613,0.348
		c-0.493,0.232-0.916,0.544-1.268,0.937c-0.352,0.393-0.628,0.854-0.829,1.382s-0.302,1.09-0.302,1.685
		c0,0.635,0.098,1.222,0.294,1.76c0.196,0.539,0.475,1.005,0.837,1.397c0.362,0.393,0.8,0.7,1.313,0.922s1.091,0.332,1.734,0.332
		c0.604,0,1.171-0.104,1.704-0.31c0.533-0.207,0.98-0.457,1.343-0.75V9.336H95.24V8.28H99.6v4.197
		C99.106,12.919,98.501,13.297,97.782,13.613z"/>
	<path fill="#F37022" d="M105.724,13.906h-1.191V9.728l-4.39-6.38h1.448l3.552,5.279l3.582-5.279h1.388l-4.389,6.365V13.906z"/>
	<path fill="#F37022" d="M121.741,3.318h0.98l2.896,8.824l3.017-8.793h1.252l-3.771,10.633h-1.011l-2.896-8.567l-2.911,8.567h-0.996
		l-3.771-10.633h1.297l3.017,8.793L121.741,3.318z"/>
	<path fill="#F37022" d="M139.071,4.434h-6.44v3.605h5.762v1.086h-5.762v3.695h6.516v1.086h-7.707V3.348h7.632V4.434z"/>
	<path fill="#F37022" d="M148.573,4.434h-6.44v3.605h5.762v1.086h-5.762v3.695h6.516v1.086h-7.707V3.348h7.632V4.434z"/>
	<path fill="#F37022" d="M159.434,13.906h-1.493l-4.057-5.113l-2.248,2.278v2.835h-1.191V3.348h1.191v6.305l6.063-6.305h1.538
		l-4.524,4.615L159.434,13.906z"/>
</g>
<g>
	<path fill="#737373" d="M10.105,20.351H5.489v2.722h4.126v0.784H5.489v3.321h-0.86v-7.622h5.476V20.351z"/>
	<path fill="#737373" d="M11.761,25.485c0.116,0.236,0.265,0.436,0.446,0.599c0.181,0.164,0.385,0.287,0.61,0.37
		c0.225,0.083,0.46,0.125,0.708,0.125c0.392,0,0.728-0.073,1.007-0.218c0.28-0.146,0.536-0.338,0.768-0.577l0.523,0.468
		c-0.283,0.319-0.606,0.575-0.969,0.768c-0.363,0.192-0.813,0.289-1.35,0.289c-0.385,0-0.748-0.071-1.089-0.212
		c-0.341-0.142-0.64-0.341-0.895-0.599c-0.256-0.257-0.459-0.568-0.61-0.931s-0.226-0.762-0.226-1.198
		c0-0.406,0.067-0.79,0.202-1.148c0.134-0.359,0.321-0.671,0.561-0.937c0.24-0.265,0.524-0.474,0.854-0.626
		c0.331-0.152,0.691-0.229,1.083-0.229c0.414,0,0.784,0.078,1.11,0.234c0.327,0.156,0.603,0.369,0.828,0.637
		c0.225,0.269,0.396,0.584,0.512,0.947c0.116,0.363,0.174,0.751,0.174,1.165c0,0.037,0,0.076,0,0.12
		c0,0.043-0.004,0.091-0.011,0.141h-4.453C11.572,24.979,11.645,25.249,11.761,25.485z M15.146,24.053
		c-0.021-0.254-0.074-0.497-0.157-0.729c-0.083-0.232-0.199-0.435-0.346-0.609c-0.148-0.174-0.329-0.314-0.542-0.419
		c-0.213-0.105-0.46-0.158-0.741-0.158c-0.245,0-0.473,0.049-0.682,0.147c-0.209,0.098-0.394,0.232-0.552,0.403
		s-0.288,0.372-0.389,0.604s-0.166,0.486-0.195,0.762H15.146z"/>
	<path fill="#737373" d="M22.496,25.599c-0.152,0.363-0.354,0.669-0.604,0.92c-0.25,0.25-0.537,0.443-0.86,0.577
		c-0.323,0.134-0.655,0.201-0.996,0.201c-0.262,0-0.501-0.033-0.719-0.098c-0.218-0.065-0.414-0.153-0.588-0.262
		s-0.332-0.235-0.474-0.381c-0.142-0.145-0.267-0.297-0.375-0.458v1.078h-0.838v-7.948h0.838v3.452
		c0.116-0.167,0.245-0.327,0.386-0.479s0.299-0.285,0.474-0.397c0.174-0.112,0.368-0.203,0.583-0.272
		c0.214-0.069,0.452-0.103,0.713-0.103c0.333,0,0.662,0.065,0.985,0.196c0.323,0.131,0.611,0.321,0.865,0.572
		c0.254,0.25,0.458,0.557,0.61,0.92s0.229,0.777,0.229,1.241S22.648,25.236,22.496,25.599z M21.706,23.47
		c-0.105-0.268-0.249-0.497-0.43-0.688c-0.182-0.191-0.392-0.338-0.632-0.439c-0.239-0.101-0.494-0.152-0.762-0.152
		c-0.261,0-0.513,0.053-0.756,0.157c-0.244,0.105-0.461,0.251-0.653,0.439s-0.345,0.415-0.458,0.683
		c-0.112,0.267-0.168,0.563-0.168,0.888s0.056,0.623,0.168,0.894c0.113,0.271,0.265,0.5,0.458,0.688
		c0.192,0.188,0.41,0.334,0.653,0.439c0.243,0.104,0.495,0.157,0.756,0.157c0.269,0,0.524-0.048,0.768-0.146
		s0.454-0.238,0.632-0.422c0.178-0.184,0.319-0.412,0.424-0.683c0.105-0.271,0.158-0.576,0.158-0.916
		C21.864,24.037,21.812,23.737,21.706,23.47z"/>
	<path fill="#737373" d="M24.673,27.178h-0.838v-5.629h0.838v1.47c0.102-0.232,0.229-0.446,0.381-0.642
		c0.152-0.196,0.327-0.365,0.522-0.506c0.196-0.142,0.41-0.249,0.643-0.321c0.232-0.073,0.482-0.105,0.751-0.098v0.904h-0.065
		c-0.305,0-0.594,0.054-0.866,0.163s-0.51,0.272-0.713,0.49s-0.363,0.488-0.479,0.811c-0.116,0.323-0.174,0.695-0.174,1.116V27.178z
		"/>
	<path fill="#737373" d="M31.805,21.549h0.828v5.629h-0.828v-0.98c-0.189,0.305-0.436,0.564-0.74,0.778
		c-0.305,0.214-0.701,0.321-1.187,0.321c-0.341,0-0.644-0.054-0.909-0.163c-0.265-0.109-0.49-0.263-0.675-0.463
		s-0.327-0.437-0.425-0.713c-0.098-0.276-0.147-0.581-0.147-0.915v-3.495h0.838v3.288c0,0.522,0.134,0.937,0.403,1.241
		s0.653,0.457,1.154,0.457c0.239,0,0.462-0.042,0.669-0.125s0.385-0.203,0.534-0.359c0.148-0.156,0.267-0.343,0.354-0.561
		c0.087-0.218,0.131-0.458,0.131-0.719V21.549z"/>
	<path fill="#737373" d="M35.207,22.327c-0.272,0.076-0.539,0.176-0.8,0.299l-0.25-0.686c0.312-0.146,0.627-0.26,0.947-0.343
		c0.319-0.083,0.686-0.125,1.1-0.125c0.769,0,1.361,0.19,1.774,0.571c0.414,0.381,0.621,0.946,0.621,1.693v3.44h-0.806v-0.849
		c-0.196,0.254-0.459,0.479-0.789,0.675c-0.331,0.196-0.746,0.294-1.247,0.294c-0.262,0-0.518-0.036-0.768-0.109
		c-0.25-0.072-0.476-0.183-0.675-0.332c-0.2-0.148-0.359-0.332-0.479-0.55s-0.18-0.475-0.18-0.773c0-0.297,0.058-0.561,0.174-0.79
		c0.116-0.229,0.281-0.419,0.495-0.571c0.214-0.152,0.468-0.269,0.762-0.349c0.294-0.08,0.619-0.12,0.975-0.12
		c0.363,0,0.679,0.022,0.947,0.065s0.53,0.102,0.784,0.174v-0.196c0-0.508-0.147-0.891-0.441-1.148
		c-0.294-0.258-0.706-0.387-1.236-0.387C35.782,22.213,35.479,22.251,35.207,22.327z M34.938,24.641
		c-0.282,0.21-0.423,0.497-0.423,0.86c0,0.182,0.038,0.341,0.114,0.479c0.076,0.138,0.179,0.256,0.309,0.354
		c0.13,0.098,0.28,0.172,0.451,0.223c0.17,0.051,0.349,0.076,0.537,0.076c0.26,0,0.504-0.038,0.732-0.114s0.427-0.181,0.597-0.316
		c0.17-0.134,0.304-0.294,0.402-0.479s0.146-0.39,0.146-0.615v-0.544c-0.21-0.058-0.451-0.112-0.722-0.163
		c-0.271-0.051-0.581-0.076-0.928-0.076C35.626,24.325,35.221,24.431,34.938,24.641z"/>
	<path fill="#737373" d="M40.787,27.178h-0.838v-5.629h0.838v1.47c0.102-0.232,0.229-0.446,0.381-0.642
		c0.152-0.196,0.327-0.365,0.522-0.506c0.196-0.142,0.41-0.249,0.643-0.321c0.232-0.073,0.482-0.105,0.751-0.098v0.904h-0.065
		c-0.305,0-0.594,0.054-0.866,0.163s-0.51,0.272-0.713,0.49s-0.363,0.488-0.479,0.811c-0.116,0.323-0.174,0.695-0.174,1.116V27.178z
		"/>
	<path fill="#737373" d="M46.667,27.363c-0.24,0.581-0.506,0.991-0.8,1.23c-0.294,0.239-0.652,0.359-1.073,0.359
		c-0.232,0-0.442-0.024-0.631-0.071c-0.189-0.047-0.377-0.118-0.566-0.212l0.283-0.664c0.138,0.072,0.274,0.125,0.409,0.158
		c0.134,0.033,0.292,0.049,0.474,0.049c0.254,0,0.468-0.076,0.642-0.229s0.345-0.428,0.512-0.828l-2.559-5.607h0.925l2.047,4.692
		l1.807-4.692h0.893L46.667,27.363z"/>
	<path fill="#737373" d="M54.037,20.542c-0.313,0.222-0.621,0.546-0.926,0.975l-0.631-0.458c0.174-0.254,0.352-0.482,0.534-0.685
		c0.181-0.203,0.379-0.372,0.593-0.508c0.214-0.136,0.454-0.24,0.719-0.312c0.265-0.071,0.564-0.107,0.898-0.107
		c0.349,0,0.666,0.055,0.953,0.164s0.535,0.26,0.746,0.452c0.21,0.192,0.374,0.421,0.49,0.686c0.116,0.265,0.174,0.554,0.174,0.866
		c0,0.283-0.038,0.541-0.114,0.773s-0.194,0.463-0.354,0.691s-0.359,0.464-0.599,0.708c-0.24,0.243-0.526,0.51-0.86,0.8
		l-2.036,1.808h4.04v0.784h-5.324v-0.665l2.766-2.443c0.29-0.262,0.537-0.498,0.74-0.709c0.203-0.21,0.369-0.409,0.496-0.594
		c0.127-0.185,0.218-0.367,0.272-0.545c0.055-0.178,0.082-0.362,0.082-0.551c0-0.226-0.042-0.427-0.125-0.605
		c-0.083-0.178-0.194-0.331-0.332-0.458c-0.138-0.127-0.301-0.226-0.49-0.295c-0.189-0.069-0.385-0.104-0.588-0.104
		C54.723,20.209,54.349,20.32,54.037,20.542z"/>
	<path fill="#737373" d="M64.783,24.88c-0.152,0.479-0.368,0.898-0.647,1.258c-0.28,0.359-0.619,0.644-1.018,0.854
		c-0.399,0.21-0.842,0.316-1.329,0.316c-0.494,0-0.938-0.104-1.333-0.311s-0.733-0.49-1.013-0.849s-0.494-0.777-0.642-1.252
		c-0.149-0.476-0.224-0.982-0.224-1.519s0.077-1.045,0.229-1.524s0.368-0.898,0.647-1.257c0.28-0.359,0.619-0.644,1.018-0.855
		c0.399-0.21,0.846-0.315,1.339-0.315c0.486,0,0.927,0.104,1.323,0.31c0.396,0.207,0.733,0.49,1.013,0.85
		c0.279,0.359,0.494,0.776,0.643,1.252c0.148,0.476,0.223,0.981,0.223,1.519C65.012,23.894,64.936,24.401,64.783,24.88z
		 M63.956,22.175c-0.109-0.381-0.265-0.717-0.468-1.007c-0.203-0.29-0.448-0.522-0.735-0.697c-0.287-0.174-0.608-0.261-0.964-0.261
		c-0.355,0-0.677,0.085-0.963,0.256c-0.287,0.171-0.53,0.399-0.729,0.686s-0.354,0.621-0.463,1.001
		c-0.109,0.381-0.163,0.782-0.163,1.203c0,0.421,0.054,0.824,0.163,1.208c0.109,0.385,0.265,0.723,0.468,1.013
		c0.203,0.291,0.45,0.521,0.74,0.691c0.291,0.171,0.613,0.256,0.969,0.256c0.355,0,0.677-0.085,0.963-0.256
		c0.287-0.17,0.53-0.399,0.729-0.686c0.2-0.287,0.352-0.621,0.458-1.001c0.105-0.381,0.158-0.782,0.158-1.203
		S64.065,22.556,63.956,22.175z"/>
	<path fill="#737373" d="M67.364,20.542c-0.313,0.222-0.621,0.546-0.926,0.975l-0.631-0.458c0.174-0.254,0.352-0.482,0.534-0.685
		c0.181-0.203,0.379-0.372,0.593-0.508c0.214-0.136,0.454-0.24,0.719-0.312c0.265-0.071,0.564-0.107,0.898-0.107
		c0.349,0,0.666,0.055,0.953,0.164s0.535,0.26,0.746,0.452c0.21,0.192,0.374,0.421,0.49,0.686c0.116,0.265,0.174,0.554,0.174,0.866
		c0,0.283-0.038,0.541-0.114,0.773s-0.194,0.463-0.354,0.691s-0.359,0.464-0.599,0.708c-0.24,0.243-0.526,0.51-0.86,0.8
		l-2.036,1.808h4.04v0.784h-5.324v-0.665l2.766-2.443c0.29-0.262,0.537-0.498,0.74-0.709c0.203-0.21,0.369-0.409,0.496-0.594
		c0.127-0.185,0.218-0.367,0.272-0.545c0.055-0.178,0.082-0.362,0.082-0.551c0-0.226-0.042-0.427-0.125-0.605
		c-0.083-0.178-0.194-0.331-0.332-0.458c-0.138-0.127-0.301-0.226-0.49-0.295c-0.189-0.069-0.385-0.104-0.588-0.104
		C68.05,20.209,67.676,20.32,67.364,20.542z"/>
	<path fill="#737373" d="M76.477,19.502v5.15h1.187v0.719h-1.187v1.807h-0.827v-1.807h-4.018l-0.218-0.621l4.312-5.248H76.477z
		 M75.649,20.721l-3.201,3.931h3.201V20.721z"/>
	<path fill="#737373" d="M81.942,28.571V18.489h0.708v10.082H81.942z"/>
	<path fill="#737373" d="M92.705,26.966c-0.52,0.228-1.102,0.342-1.748,0.342c-0.603,0-1.141-0.102-1.617-0.305
		c-0.475-0.203-0.881-0.482-1.219-0.838c-0.338-0.355-0.596-0.773-0.773-1.252s-0.267-0.991-0.267-1.535
		c0-0.522,0.093-1.023,0.278-1.502c0.185-0.479,0.443-0.9,0.777-1.263c0.334-0.363,0.735-0.651,1.203-0.865
		c0.469-0.214,0.989-0.321,1.563-0.321c0.32,0,0.611,0.021,0.877,0.065c0.265,0.043,0.512,0.109,0.74,0.196s0.443,0.194,0.643,0.321
		s0.394,0.271,0.582,0.43l-0.555,0.653c-0.146-0.13-0.298-0.249-0.457-0.354c-0.16-0.105-0.332-0.196-0.518-0.272
		s-0.389-0.136-0.609-0.18c-0.223-0.043-0.467-0.065-0.735-0.065c-0.421,0-0.81,0.083-1.165,0.25
		c-0.355,0.167-0.66,0.393-0.914,0.676c-0.254,0.284-0.454,0.616-0.6,0.998c-0.145,0.382-0.217,0.787-0.217,1.216
		c0,0.458,0.07,0.881,0.212,1.271s0.343,0.725,0.604,1.009c0.261,0.284,0.576,0.505,0.947,0.665c0.369,0.16,0.787,0.24,1.252,0.24
		c0.436,0,0.846-0.075,1.23-0.224s0.707-0.33,0.969-0.541v-1.902H90.87v-0.762h3.146v3.03
		C93.661,26.465,93.224,26.738,92.705,26.966z"/>
	<path fill="#737373" d="M100.674,25.496c-0.148,0.359-0.354,0.673-0.615,0.942c-0.261,0.269-0.573,0.481-0.936,0.637
		c-0.363,0.156-0.756,0.234-1.176,0.234c-0.422,0-0.811-0.078-1.166-0.234c-0.355-0.156-0.664-0.366-0.925-0.631
		s-0.465-0.575-0.61-0.931c-0.145-0.355-0.217-0.733-0.217-1.132c0-0.399,0.072-0.778,0.217-1.138
		c0.146-0.359,0.35-0.673,0.61-0.942c0.261-0.268,0.571-0.48,0.931-0.637c0.359-0.156,0.753-0.234,1.182-0.234
		c0.421,0,0.811,0.078,1.17,0.234c0.359,0.156,0.67,0.367,0.932,0.631c0.261,0.265,0.464,0.576,0.609,0.931
		c0.145,0.355,0.218,0.733,0.218,1.132S100.822,25.136,100.674,25.496z M99.879,23.516c-0.105-0.268-0.252-0.501-0.44-0.701
		c-0.188-0.199-0.41-0.356-0.664-0.472c-0.255-0.116-0.53-0.174-0.827-0.174c-0.305,0-0.585,0.056-0.839,0.168
		s-0.47,0.268-0.647,0.467c-0.178,0.199-0.318,0.431-0.42,0.695c-0.102,0.264-0.152,0.548-0.152,0.853s0.053,0.59,0.158,0.858
		s0.25,0.5,0.436,0.695c0.186,0.195,0.404,0.351,0.658,0.467s0.53,0.174,0.828,0.174c0.305,0,0.584-0.056,0.838-0.168
		s0.473-0.266,0.653-0.461c0.182-0.196,0.323-0.425,0.425-0.69c0.102-0.264,0.152-0.548,0.152-0.853S99.984,23.784,99.879,23.516z"
		/>
	<path fill="#737373" d="M103.102,22.327c-0.271,0.076-0.538,0.176-0.799,0.299l-0.251-0.686c0.312-0.146,0.628-0.26,0.947-0.343
		c0.319-0.083,0.686-0.125,1.1-0.125c0.769,0,1.36,0.19,1.774,0.571c0.414,0.381,0.621,0.946,0.621,1.693v3.44h-0.807v-0.849
		c-0.195,0.254-0.459,0.479-0.789,0.675c-0.33,0.196-0.746,0.294-1.246,0.294c-0.262,0-0.518-0.036-0.768-0.109
		c-0.25-0.072-0.476-0.183-0.676-0.332c-0.199-0.148-0.359-0.332-0.479-0.55s-0.18-0.475-0.18-0.773c0-0.297,0.059-0.561,0.174-0.79
		c0.116-0.229,0.281-0.419,0.496-0.571c0.214-0.152,0.468-0.269,0.762-0.349c0.294-0.08,0.619-0.12,0.975-0.12
		c0.363,0,0.679,0.022,0.947,0.065s0.529,0.102,0.783,0.174v-0.196c0-0.508-0.146-0.891-0.44-1.148
		c-0.294-0.258-0.706-0.387-1.235-0.387C103.678,22.213,103.375,22.251,103.102,22.327z M102.834,24.641
		c-0.282,0.21-0.423,0.497-0.423,0.86c0,0.182,0.038,0.341,0.114,0.479c0.075,0.138,0.179,0.256,0.309,0.354
		c0.131,0.098,0.28,0.172,0.451,0.223c0.17,0.051,0.349,0.076,0.537,0.076c0.26,0,0.504-0.038,0.732-0.114
		c0.228-0.076,0.426-0.181,0.596-0.316c0.17-0.134,0.305-0.294,0.402-0.479s0.146-0.39,0.146-0.615v-0.544
		c-0.21-0.058-0.451-0.112-0.722-0.163c-0.271-0.051-0.581-0.076-0.929-0.076C103.521,24.325,103.116,24.431,102.834,24.641z"/>
	<path fill="#737373" d="M107.996,27.75c0.115-0.149,0.163-0.339,0.142-0.572h-0.392v-1.143h1.001v0.98
		c0,0.442-0.098,0.778-0.294,1.007c-0.195,0.229-0.5,0.39-0.914,0.484l-0.131-0.381C107.684,28.023,107.88,27.898,107.996,27.75z"/>
	<path fill="#737373" d="M113.984,19.556v7.622h-0.859v-7.622H113.984z"/>
	<path fill="#737373" d="M116.478,27.178h-0.839v-5.629h0.839v0.98c0.188-0.305,0.436-0.564,0.74-0.779
		c0.305-0.214,0.7-0.321,1.187-0.321c0.342,0,0.645,0.054,0.909,0.163s0.49,0.263,0.675,0.463c0.186,0.2,0.327,0.438,0.425,0.713
		c0.099,0.276,0.147,0.581,0.147,0.915v3.495h-0.839V23.89c0-0.522-0.134-0.937-0.403-1.241c-0.268-0.305-0.652-0.458-1.153-0.458
		c-0.239,0-0.463,0.042-0.67,0.125c-0.206,0.083-0.386,0.203-0.538,0.359s-0.271,0.343-0.354,0.561s-0.125,0.458-0.125,0.719V27.178
		z"/>
	<path fill="#737373" d="M126.429,27.178v-1.132c-0.115,0.167-0.244,0.327-0.387,0.479c-0.141,0.152-0.299,0.287-0.473,0.403
		c-0.174,0.116-0.369,0.207-0.584,0.272c-0.213,0.065-0.451,0.098-0.713,0.098c-0.34,0-0.67-0.065-0.99-0.196
		c-0.319-0.131-0.606-0.321-0.86-0.572s-0.457-0.557-0.609-0.92c-0.152-0.363-0.229-0.776-0.229-1.241
		c0-0.464,0.076-0.878,0.229-1.241c0.152-0.363,0.355-0.669,0.609-0.92s0.541-0.443,0.86-0.577c0.32-0.134,0.65-0.201,0.99-0.201
		c0.262,0,0.502,0.033,0.719,0.098c0.219,0.065,0.414,0.152,0.588,0.261s0.332,0.236,0.475,0.381
		c0.141,0.145,0.266,0.298,0.375,0.457v-3.397h0.838v7.948H126.429z M126.292,23.47c-0.111-0.268-0.264-0.495-0.457-0.683
		c-0.191-0.188-0.41-0.334-0.652-0.439c-0.244-0.104-0.496-0.157-0.758-0.157c-0.275,0-0.533,0.049-0.771,0.146
		c-0.24,0.098-0.449,0.238-0.627,0.422c-0.178,0.185-0.319,0.412-0.425,0.683s-0.158,0.576-0.158,0.916
		c0,0.332,0.053,0.632,0.158,0.899c0.105,0.268,0.249,0.497,0.431,0.688s0.393,0.338,0.631,0.439
		c0.24,0.101,0.494,0.151,0.762,0.151c0.262,0,0.514-0.052,0.758-0.157c0.242-0.105,0.461-0.251,0.652-0.439
		c0.193-0.188,0.346-0.417,0.457-0.688c0.113-0.271,0.17-0.568,0.17-0.894S126.405,23.737,126.292,23.47z"/>
	<path fill="#737373" d="M128.726,20.318v-0.925h0.958v0.925H128.726z M128.78,27.178v-5.629h0.838v5.629H128.78z"/>
	<path fill="#737373" d="M132.259,22.327c-0.272,0.076-0.539,0.176-0.801,0.299l-0.25-0.686c0.312-0.146,0.628-0.26,0.947-0.343
		c0.319-0.083,0.686-0.125,1.1-0.125c0.77,0,1.361,0.19,1.774,0.571c0.414,0.381,0.621,0.946,0.621,1.693v3.44h-0.806v-0.849
		c-0.196,0.254-0.46,0.479-0.79,0.675c-0.33,0.196-0.745,0.294-1.246,0.294c-0.262,0-0.518-0.036-0.768-0.109
		c-0.251-0.072-0.476-0.183-0.675-0.332c-0.2-0.148-0.359-0.332-0.479-0.55s-0.18-0.475-0.18-0.773c0-0.297,0.058-0.561,0.174-0.79
		c0.116-0.229,0.281-0.419,0.496-0.571c0.214-0.152,0.468-0.269,0.762-0.349c0.294-0.08,0.619-0.12,0.975-0.12
		c0.363,0,0.679,0.022,0.947,0.065s0.529,0.102,0.784,0.174v-0.196c0-0.508-0.147-0.891-0.441-1.148
		c-0.294-0.258-0.706-0.387-1.235-0.387C132.834,22.213,132.53,22.251,132.259,22.327z M131.99,24.641
		c-0.282,0.21-0.423,0.497-0.423,0.86c0,0.182,0.038,0.341,0.113,0.479c0.076,0.138,0.18,0.256,0.31,0.354s0.28,0.172,0.45,0.223
		s0.35,0.076,0.537,0.076c0.261,0,0.505-0.038,0.732-0.114c0.229-0.076,0.427-0.181,0.598-0.316c0.17-0.134,0.304-0.294,0.401-0.479
		s0.146-0.39,0.146-0.615v-0.544c-0.21-0.058-0.451-0.112-0.722-0.163c-0.271-0.051-0.581-0.076-0.928-0.076
		C132.678,24.325,132.272,24.431,131.99,24.641z"/>
</g>
</svg>
